<?xml version="1.0" encoding="UTF-8" standalone="no"?>
<svg
   width="447.21664"
   zoomAndPan="magnify"
   viewBox="0 0 335.41248 74.999998"
   height="100"
   preserveAspectRatio="xMidYMid"
   version="1.0"
   id="svg159"
   xmlns="http://www.w3.org/2000/svg"
   xmlns:svg="http://www.w3.org/2000/svg">
  <defs
     id="defs7">
    <clipPath
       id="988a202f19">
      <path
         d="M 15.023438,146.8125 H 171.77344 v 81 H 15.023438 Z m 0,0"
         clip-rule="nonzero"
         id="path4" />
    </clipPath>
  </defs>
  <g
     id="g469"
     transform="translate(-14.560926,-148.5)">
    <g
       id="g326"
       transform="matrix(0.92632798,0,0,0.92632798,0.64067703,12.481759)">
      <path
         fill="#0095d9"
         d="m 105.04297,181.40625 c 2.67578,-8.07813 12.59375,-14.62891 22.15234,-14.62891 9.5586,0 15.13672,6.55078 12.46094,14.62891 -2.67969,8.08203 -12.59766,14.62891 -22.15625,14.62891 -9.55859,0 -15.13672,-6.54688 -12.45703,-14.62891 z m 15.0625,20.8125 c 2.15234,-0.30469 4.28516,-0.84766 6.34375,-1.59375 l 2.53125,1.89844 c 1.75781,-0.7461 3.46094,-1.61719 5.08203,-2.60157 l -0.125,-3.125 c 1.82812,-1.23828 3.50391,-2.64453 4.97656,-4.17578 l 3.89063,-0.0312 c 1.14062,-1.33593 2.14843,-2.73828 3,-4.19922 l -2.46485,-1.95312 c 0.41797,-0.84375 0.77735,-1.70703 1.06641,-2.58203 0.29297,-0.87891 0.50391,-1.73828 0.64453,-2.58594 l 3.76172,-1.95312 c 0.11328,-1.46094 0.0391,-2.86329 -0.21875,-4.19532 l -3.86719,-0.0352 c -0.45703,-1.53125 -1.20312,-2.9375 -2.21094,-4.17578 l 2.19922,-3.125 c -0.97265,-0.98438 -2.09375,-1.85547 -3.36328,-2.60157 l -3.78515,1.89844 c -1.56641,-0.74609 -3.33594,-1.29297 -5.28516,-1.59766 l -0.20703,-3.10156 c -0.83203,-0.0742 -1.69141,-0.11328 -2.57422,-0.11328 -0.87891,0 -1.76172,0.0391 -2.64453,0.11328 l -2.26563,3.10156 c -2.14843,0.30469 -4.28125,0.85157 -6.34375,1.59766 l -2.52734,-1.89844 c -1.75781,0.7461 -3.46484,1.61719 -5.08203,2.60157 l 0.125,3.125 c -1.82813,1.23828 -3.50391,2.64453 -4.98047,4.17578 l -3.88672,0.0352 c -1.14453,1.33203 -2.152342,2.73438 -3.003905,4.19532 l 2.464845,1.95312 c -0.41797,0.84766 -0.77344,1.70703 -1.06641,2.58594 -0.28906,0.875 -0.503904,1.73828 -0.644529,2.58203 l -3.761719,1.95312 c -0.113281,1.46094 -0.03516,2.86329 0.222657,4.19922 l 3.863281,0.0312 c 0.46094,1.53125 1.20703,2.9375 2.21094,4.17578 l -2.195315,3.125 c 0.968755,0.98438 2.093755,1.85547 3.359375,2.60157 l 3.78906,-1.89844 c 1.5625,0.74609 3.33594,1.28906 5.28516,1.59375 l 0.20312,3.10547 c 0.83204,0.0742 1.69141,0.11328 2.57422,0.11328 0.88282,0 1.76563,-0.0391 2.64844,-0.11328 l 2.26172,-3.10547"
         fill-opacity="1"
         fill-rule="nonzero"
         id="path9" />
      <path
         fill="#0dbcdf"
         d="m 80.34375,204.92969 14.375,-0.625 c -0.476562,-0.40625 -0.929688,-0.83594 -1.359375,-1.28516 -0.09375,-0.0937 -0.183594,-0.1875 -0.273437,-0.28125 -0.06641,-0.0742 -0.132813,-0.14844 -0.199219,-0.22266 -0.734375,-0.8164 -1.394531,-1.6875 -1.964844,-2.60937 -1.132813,-1.83203 -1.929687,-3.85156 -2.351563,-6.02344 l -16.277343,1.94531 c -0.191407,2.375 -0.105469,4.67188 0.238281,6.8711 l -23.679688,3.59765 31.492188,-1.36718"
         fill-opacity="1"
         fill-rule="nonzero"
         id="path11" />
      <g
         clip-path="url(#988a202f19)"
         id="g15">
        <path
           fill="#0dbcdf"
           d="m 164.51562,182.47656 7.05079,-3.66406 c 0.21484,-2.73828 0.0703,-5.375 -0.41407,-7.875 l -7.25,-0.0625 c -0.85937,-2.875 -2.26172,-5.50781 -4.14453,-7.83594 l 4.11719,-5.85937 c -1.81641,-1.84375 -3.92578,-3.48047 -6.30078,-4.875 l -7.10547,3.5625 c -2.93359,-1.40625 -6.25391,-2.42578 -9.91016,-2.9961 l -0.38672,-5.82422 c -1.55859,-0.13671 -3.17187,-0.21093 -4.82812,-0.21093 -1.65234,0 -3.30859,0.0742 -4.96094,0.21093 l -4.24609,5.82422 c -4.03516,0.57032 -8.03516,1.58985 -11.89844,2.9961 l -4.74219,-3.5625 c -3.30078,1.39453 -6.49609,3.03125 -9.535152,4.875 l 0.234372,5.85937 c -2.94531,2 -5.683591,4.23047 -8.152341,6.64453 l -77.015625,10.88672 63.382812,-2.55859 13.398438,-0.54297 C 92.914062,175.5 94.25,173.60547 95.769531,171.80859 v -0.004 c 0.890625,-1.05469 1.84375,-2.07422 2.855469,-3.05078 8.32422,-8.0625 20.51172,-13.46485 32.39844,-13.46485 17.92578,0 28.38672,12.28516 23.36328,27.44141 -5.02344,15.15625 -23.625,27.4414 -41.55469,27.4414 -5.59375,0 -10.46094,-1.19921 -14.359374,-3.30859 l -10.4375,0.45313 -6.539062,0.28515 c 0.722656,1.41406 1.59375,2.75 2.605468,3.9961 l -4.117187,5.86328 c 1.816406,1.84375 3.925781,3.48047 6.304687,4.875 l 7.101563,-3.5625 c 2.933594,1.40625 6.253906,2.42578 9.910155,2.99609 l 0.38672,5.82031 c 1.5625,0.14063 3.17188,0.21094 4.82422,0.21094 1.65625,0 3.31641,-0.0703 4.96875,-0.21094 l 4.24219,-5.82031 c 4.03515,-0.57031 8.03515,-1.58984 11.89843,-2.99609 l 4.74219,3.5625 c 3.30078,-1.39453 6.49609,-3.03125 9.53516,-4.875 l -0.23438,-5.86328 c 3.42578,-2.32422 6.57422,-4.96094 9.33985,-7.83204 l 7.28906,-0.0625 c 2.14453,-2.5 4.03515,-5.13671 5.63672,-7.875 l -4.625,-3.66406 c 0.78125,-1.58203 1.45312,-3.19922 2,-4.84375 0.54297,-1.64453 0.94531,-3.26172 1.21093,-4.84375"
           fill-opacity="1"
           fill-rule="nonzero"
           id="path13" />
      </g>
      <path
         fill="#0dbcdf"
         d="m 36.277344,193.29687 43.179687,-1.74609 8.78125,-0.35156 c -0.03125,-0.58985 -0.03125,-1.1836 -0.01172,-1.78906 0.04297,-1.14454 0.175782,-2.32032 0.410157,-3.51563 0.203125,-1.03906 0.480469,-2.09375 0.832031,-3.16406 0.28125,-0.84766 0.605469,-1.6836 0.96875,-2.50781 l -4.335938,0.17578 -5.867187,0.23437 2.324219,1.84375 c -0.738282,1.48828 -1.375,3.00391 -1.902344,4.54688 l -44.378906,6.27343"
         fill-opacity="1"
         fill-rule="nonzero"
         id="path17" />
    </g>
    <g
       id="g392"
       transform="matrix(1.0445488,0,0,1.0445488,-24.849156,-9.0769759)">
      <g
         fill="#0095d9"
         fill-opacity="1"
         id="g25">
        <g
           transform="translate(182.61686,222.15784)"
           id="g23">
          <g
             id="g21">
            <path
               d="M 8.75,0.5 C 4.269531,0.5 1.238281,-0.765625 -0.34375,-3.296875 -1.9375,-5.835938 -2.160156,-9.601562 -1.015625,-14.59375 L 8.1875,-54.5 h 10.59375 l -9.140625,39.46875 c -0.375,1.730469 -0.511719,3.085938 -0.40625,4.0625 0.101563,0.96875 0.703125,1.453125 1.796875,1.453125 1.101562,0 1.941406,-0.472656 2.515625,-1.421875 0.570313,-0.957031 1.046875,-2.320312 1.421875,-4.09375 L 24.109375,-54.5 h 10.59375 L 25.5,-14.59375 C 24.351562,-9.601562 22.394531,-5.835938 19.625,-3.296875 16.863281,-0.765625 13.238281,0.5 8.75,0.5 Z m 0,0"
               id="path19" />
          </g>
        </g>
      </g>
      <g
         fill="#0095d9"
         fill-opacity="1"
         id="g33">
        <g
           transform="translate(212.68436,222.15784)"
           id="g31">
          <g
             id="g29">
            <path
               d="m 8.75,-54.5 h 14.40625 c 4.351562,0 7.128906,1.40625 8.328125,4.21875 1.207031,2.8125 1.203125,6.929688 -0.01563,12.34375 -1.273438,5.417969 -3.054688,9.5 -5.34375,12.25 -2.28125,2.75 -5.558594,4.125 -9.828125,4.125 h -4.4375 L 6.90625,0 H -3.8125 Z m 6.03125,23.09375 c 1.3125,0 2.328125,-0.238281 3.046875,-0.71875 0.71875,-0.488281 1.273437,-1.1875 1.671875,-2.09375 0.40625,-0.914062 0.820312,-2.21875 1.25,-3.90625 0.5,-2.28125 0.609375,-3.925781 0.328125,-4.9375 -0.273437,-1.019531 -1.167969,-1.53125 -2.6875,-1.53125 H 17.1875 l -3.046875,13.1875 z m 0,0"
               id="path27" />
          </g>
        </g>
      </g>
      <g
         fill="#0095d9"
         fill-opacity="1"
         id="g41">
        <g
           transform="translate(242.62498,222.15784)"
           id="g39">
          <g
             id="g37">
            <path
               d="M -3.8125,0 8.75,-54.5 h 10.78125 l -5,21.828125 L 24.609375,-54.5 H 35.59375 L 23.71875,-29.5625 24.296875,0 H 13 L 13.125,-26.390625 7.046875,0 Z m 0,0"
               id="path35" />
          </g>
        </g>
      </g>
      <g
         fill="#0095d9"
         fill-opacity="1"
         id="g49">
        <g
           transform="translate(272.56561,222.15784)"
           id="g47">
          <g
             id="g45">
            <path
               d="M -3.8125,0 8.75,-54.5 h 21.828125 l -2.40625,10.53125 H 17.4375 L 14.96875,-33.375 H 25.25 l -2.34375,10.28125 H 12.625 l -2.921875,12.5 H 21.125 L 18.71875,0 Z m 0,0"
               id="path43" />
          </g>
        </g>
      </g>
      <g
         fill="#0095d9"
         fill-opacity="1"
         id="g57">
        <g
           transform="translate(298.70022,222.15784)"
           id="g55">
          <g
             id="g53">
            <path
               d="M -3.8125,0 8.75,-54.5 h 21.828125 l -2.40625,10.53125 H 17.4375 L 14.96875,-33.375 H 25.25 l -2.34375,10.28125 H 12.625 l -2.921875,12.5 H 21.125 L 18.71875,0 Z m 0,0"
               id="path51" />
          </g>
        </g>
      </g>
      <g
         fill="#0095d9"
         fill-opacity="1"
         id="g65">
        <g
           transform="translate(324.83482,222.15784)"
           id="g63">
          <g
             id="g61">
            <path
               d="m 8.75,-54.5 h 14.40625 c 4.351562,0 7.128906,1.40625 8.328125,4.21875 1.207031,2.8125 1.203125,6.929688 -0.01563,12.34375 -1.273438,5.417969 -3.054688,9.5 -5.34375,12.25 -2.28125,2.75 -5.558594,4.125 -9.828125,4.125 h -4.4375 L 6.90625,0 H -3.8125 Z m 6.03125,23.09375 c 1.3125,0 2.328125,-0.238281 3.046875,-0.71875 0.71875,-0.488281 1.273437,-1.1875 1.671875,-2.09375 0.40625,-0.914062 0.820312,-2.21875 1.25,-3.90625 0.5,-2.28125 0.609375,-3.925781 0.328125,-4.9375 -0.273437,-1.019531 -1.167969,-1.53125 -2.6875,-1.53125 H 17.1875 l -3.046875,13.1875 z m 0,0"
               id="path59" />
          </g>
        </g>
      </g>
      <g
         fill="#0dbcdf"
         fill-opacity="1"
         id="g73"
         transform="translate(1.5746577,3.5818972e-4)">
        <g
           transform="translate(188.01584,165.04364)"
           id="g71">
          <g
             id="g69">
            <path
               d="M 9.46875,0 4.703125,-6.265625 V 0 H 1.25 v -14.1875 h 3.453125 v 6.234375 L 9.4375,-14.1875 H 13.5 L 8,-7.234375 13.703125,0 Z m 0,0"
               id="path67" />
          </g>
        </g>
      </g>
      <g
         fill="#0dbcdf"
         fill-opacity="1"
         id="g81"
         transform="translate(1.5746577,3.5818972e-4)">
        <g
           transform="translate(205.05914,165.04364)"
           id="g79">
          <g
             id="g77">
            <path
               d="m 4.703125,-11.421875 v 2.875 h 4.625 V -5.875 h -4.625 v 3.109375 H 9.9375 V 0 H 1.25 v -14.1875 h 8.6875 v 2.765625 z m 0,0"
               id="path75" />
          </g>
        </g>
      </g>
      <g
         fill="#0dbcdf"
         fill-opacity="1"
         id="g89"
         transform="translate(1.5746577,3.5818972e-4)">
        <g
           transform="translate(218.95256,165.04364)"
           id="g87">
          <g
             id="g85">
            <path
               d="m 4.703125,-11.421875 v 2.875 h 4.625 V -5.875 h -4.625 v 3.109375 H 9.9375 V 0 H 1.25 v -14.1875 h 8.6875 v 2.765625 z m 0,0"
               id="path83" />
          </g>
        </g>
      </g>
      <g
         fill="#0dbcdf"
         fill-opacity="1"
         id="g97"
         transform="translate(1.5746577,3.5818972e-4)">
        <g
           transform="translate(232.84599,165.04364)"
           id="g95">
          <g
             id="g93">
            <path
               d="m 12.0625,-9.609375 c 0,0.8125 -0.1875,1.5625 -0.5625,2.25 -0.375,0.679687 -0.953125,1.226563 -1.734375,1.640625 -0.78125,0.417969 -1.757813,0.625 -2.921875,0.625 H 4.703125 V 0 H 1.25 v -14.1875 h 5.59375 c 1.132812,0 2.09375,0.199219 2.875,0.59375 0.78125,0.386719 1.363281,0.921875 1.75,1.609375 0.394531,0.6875 0.59375,1.480469 0.59375,2.375 z M 6.59375,-7.84375 c 0.65625,0 1.144531,-0.148438 1.46875,-0.453125 0.320312,-0.3125 0.484375,-0.75 0.484375,-1.3125 0,-0.570313 -0.164063,-1.007813 -0.484375,-1.3125 -0.324219,-0.3125 -0.8125,-0.46875 -1.46875,-0.46875 H 4.703125 v 3.546875 z m 0,0"
               id="path91" />
          </g>
        </g>
      </g>
      <g
         fill="#0dbcdf"
         fill-opacity="1"
         id="g111"
         transform="translate(1.5746577,3.5818972e-4)">
        <g
           transform="translate(255.66575,165.04364)"
           id="g109">
          <g
             id="g107">
            <path
               d="m 4.640625,-14.1875 v 8.484375 c 0,0.855469 0.207031,1.511719 0.625,1.96875 0.425781,0.460937 1.039063,0.6875 1.84375,0.6875 0.8125,0 1.429687,-0.226563 1.859375,-0.6875 0.425781,-0.457031 0.640625,-1.113281 0.640625,-1.96875 V -14.1875 h 3.46875 v 8.46875 c 0,1.273438 -0.273437,2.34375 -0.8125,3.21875 C 11.722656,-1.625 11,-0.960938 10.09375,-0.515625 c -0.90625,0.4375 -1.921875,0.65625 -3.046875,0.65625 -1.117187,0 -2.117187,-0.21875 -3,-0.65625 -0.875,-0.4375 -1.574219,-1.09375 -2.09375,-1.96875 C 1.441406,-3.367188 1.1875,-4.445312 1.1875,-5.71875 v -8.46875 z m 0,0"
               id="path105" />
          </g>
        </g>
      </g>
      <g
         fill="#0dbcdf"
         fill-opacity="1"
         id="g119"
         transform="translate(1.5746577,3.5818972e-4)">
        <g
           transform="translate(272.87058,165.04364)"
           id="g117">
          <g
             id="g115">
            <path
               d="m 12.0625,-9.609375 c 0,0.8125 -0.1875,1.5625 -0.5625,2.25 -0.375,0.679687 -0.953125,1.226563 -1.734375,1.640625 -0.78125,0.417969 -1.757813,0.625 -2.921875,0.625 H 4.703125 V 0 H 1.25 v -14.1875 h 5.59375 c 1.132812,0 2.09375,0.199219 2.875,0.59375 0.78125,0.386719 1.363281,0.921875 1.75,1.609375 0.394531,0.6875 0.59375,1.480469 0.59375,2.375 z M 6.59375,-7.84375 c 0.65625,0 1.144531,-0.148438 1.46875,-0.453125 0.320312,-0.3125 0.484375,-0.75 0.484375,-1.3125 0,-0.570313 -0.164063,-1.007813 -0.484375,-1.3125 -0.324219,-0.3125 -0.8125,-0.46875 -1.46875,-0.46875 H 4.703125 v 3.546875 z m 0,0"
               id="path113" />
          </g>
        </g>
      </g>
      <g
         fill="#0dbcdf"
         fill-opacity="1"
         id="g133"
         transform="translate(1.5746577,3.5818972e-4)">
        <g
           transform="translate(295.69034,165.04364)"
           id="g131">
          <g
             id="g129">
            <path
               d="M 20.765625,-14.1875 17.078125,0 h -4.1875 L 10.625,-9.328125 8.28125,0 H 4.09375 L 0.5,-14.1875 H 4.203125 L 6.25,-3.859375 8.765625,-14.1875 H 12.5625 l 2.421875,10.328125 2.0625,-10.328125 z m 0,0"
               id="path127" />
          </g>
        </g>
      </g>
      <g
         fill="#0dbcdf"
         fill-opacity="1"
         id="g141"
         transform="translate(1.5746577,3.5818972e-4)">
        <g
           transform="translate(319.90162,165.04364)"
           id="g139">
          <g
             id="g137">
            <path
               d="M 4.703125,-14.1875 V 0 H 1.25 v -14.1875 z m 0,0"
               id="path135" />
          </g>
        </g>
      </g>
      <g
         fill="#0dbcdf"
         fill-opacity="1"
         id="g149"
         transform="translate(1.5746577,3.5818972e-4)">
        <g
           transform="translate(328.82794,165.04364)"
           id="g147">
          <g
             id="g145">
            <path
               d="m 11.453125,-14.1875 v 2.765625 h -3.75 V 0 H 4.25 V -11.421875 H 0.484375 V -14.1875 Z m 0,0"
               id="path143" />
          </g>
        </g>
      </g>
      <g
         fill="#0dbcdf"
         fill-opacity="1"
         id="g157"
         transform="translate(1.5746577,3.5818972e-4)">
        <g
           transform="translate(343.73094,165.04364)"
           id="g155">
          <g
             id="g153">
            <path
               d="M 13.53125,-14.1875 V 0 h -3.453125 v -5.84375 h -5.375 V 0 H 1.25 v -14.1875 h 3.453125 v 5.5625 h 5.375 v -5.5625 z m 0,0"
               id="path151" />
          </g>
        </g>
      </g>
    </g>
  </g>
</svg>
